<?xml version="1.0" encoding="utf-8"?>
<!-- Generator: Adobe Illustrator 21.1.0, SVG Export Plug-In . SVG Version: 6.00 Build 0)  -->
<svg version="1.1" id="Layer_1" xmlns="http://www.w3.org/2000/svg" xmlns:xlink="http://www.w3.org/1999/xlink" x="0px" y="0px"
	 viewBox="0 0 214 222" style="enable-background:new 0 0 214 222;" xml:space="preserve">
<style type="text/css">
	.st0{fill:#FFFFFF;stroke:#FFFFFF;stroke-miterlimit:10;}
	.st1{fill:#FFFFFF;stroke:#000000;stroke-miterlimit:10;}
</style>
<g id="Layer_1_1_">
	<g id="XMLID_1_">
		<g id="XMLID_2905_">
			<path id="XMLID_2989_" class="st0" d="M161.1,130.6h0.1C161.2,130.5,161.1,130.5,161.1,130.6z"/>
			<path id="XMLID_2973_" class="st1" d="M209.6,112c-6-38.5-36.4-68.8-75-74.7c-23.3-3.6-42.3,0.2-58.3,10.4
				c-5.5-3.6-14.5-5.3-20-13.6c-2.2-3.2,0.6-8.6,2.5-10.9c3-3.9,6.9-7.8,4.3-12.5c-5-9.3-17.8,7.9-19.5,10.3L41,20.3
				c-1.9,0.9-4.4,6.3-4.2,9.2c0.4,0,1.9,0.7,1.9,0.7l-0.9,5c-0.6,0.2-3,0.3-3,0.3c-0.9,1.4,0.1,8.4,1.9,9.4c0,0,3-0.8,3.1-0.8
				c0.6,1.2,1.9,3.5,2.9,5.1c0,0-2.8,1.8-2.7,2.3c0.2,1.7,4.4,6.3,6.3,7.1c1.1-0.9,2.7-2.1,3-2.3c0.8,1.4,4.3,4.2,7.5,6.4
				c-15.7,15.6-25.6,36.9-26.5,60.6c8.3-4.2,17.2-6.1,25.7-7.9c2.8-0.6,5.5-1.2,8.1-1.8c1.5-13.8,5.9-27.1,13.2-38.1
				c1.3,0.3,2.6,1,3.9,2c5.6,4.4,10.2,14.6,8.3,23.7c-0.5,0.6-0.9,1.3-1.5,1.9c-17.7,21.3-58,6.3-76.5,41.7
				c-11.5,22-2,56.5,24.8,59.9c14,1.8,18.5,1.2,30.9-5.1c14.9,10.9,33.4,17.4,53.3,17.4C175,217,218.4,168.4,209.6,112z M58,61.2
				c-3.1-1.9-7-4.9-8.6-7c0,0-2.6,1.8-3.2,2.5c-1.2-0.7-4-3.6-4.8-5c0,0,1.4-1,2.9-2.2c-0.8-1.1-3.7-5.5-3.9-6.6
				c-1.9,0.4-3.1,0.6-3.2,0.6c-1.5-1-1.9-5.7-1.3-7c0.9-0.2,2.1-0.2,3.2-0.2c-0.2-3.1,1.1-7.5,1.2-7.4l-2-1.1c0.5-1.1,2-5.4,2.9-6.2
				c0.6,0.3,2.8,0.5,3.6,1.3c3-6,16.4-16.6,11-4.9c-1.1,2.5-3,4.6-4.1,6.5c-5.4,9.9,2.6,19.6,15.8,28.5C65.9,54.6,59.5,59.8,58,61.2
				z M89.4,87.5c-1.7-4.6-4.4-8.6-7.6-11.1c-1.3-1-2.6-1.7-3.9-2.1c1.1-1.6,2.3-3.1,3.5-4.6c0.5-0.5,1-0.9,1.5-1.4
				c10.8,8.4,15,18.5,8.1,30.3C91.3,94.9,90.7,91.1,89.4,87.5z M34.7,187.4c-2-2.8-2.9-5.8-3.1-8.7c0.7,0.2,1.6,0.2,2.4,0.2
				c0,0,0,0,0.1,0c3.6,0,7.8-1.3,10.8-2.6c3.6,5.4,7.7,10.4,12.3,14.9C48.3,200,38.6,193,34.7,187.4z M128.6,200.6
				c-18.3,0-32.6-7.8-43.2-18.4c18.9-24.7,47.4-24.1,61.3-17c5.6,2.9,11.8,5.8,12.1,13.6C159.2,188,146.2,200.6,128.6,200.6z
				 M181.3,164.3c-3.5-6.8-10.7-15.1-15.4-15.9c0.1,3.8-1.9,6.9-5.4,6.7c-9.6-4.6-29.4-9.4-53.8-0.6c-15.1,5.7-23.9,15.8-27.4,20.5
				c-2.8-3.8-5.2-7.8-7.3-12.1c0.1-0.1,0.2-0.1,0.2-0.1l5.8-5.1l2.4-2l-3.6-4.3c2.8-5.2,10.7-9.9,11.1-9.4s1,1.4,1.5,2.2
				c-0.2,2.1-0.2,2-0.6,4.1c5.6-7.7,22.6-18.3,24.7-18.5l-5.2-0.2c0-0.9-0.5-2.7-0.7-3.8c6-5.6,16.9-4.7,19.8-4.4
				c0.1,0.6,0.1,1.4,0.2,2.2c0,0,0-0.3-1.8,2.3c10-1.6,15.8-1.2,26,0.9c-1.3-1.4-2.6-3-2.6-3c0-0.4,0.3-2.4,0.3-2.8
				c10.6-1.9,16.3,1.9,20,5.7c-0.1,0.5-0.6,1-2.8,3.2l-5.4,0.5c1.5,0.4,14.5,9.6,17.5,14.7c3.7-0.1,6.8-0.1,8.4,0
				C185.8,151.9,183.8,158.3,181.3,164.3z M187.7,141.8c-1.9,0.3-6.6,1.1-8.3,1.6c-1.9-2.5-8.3-8.2-12.1-10.6c1.1-1.3,4-4.6,4.3-6.1
				l0.1-0.5l-0.4-0.4c-1.8-1.8-4.3-4.1-8-5.6c-4.3-1.7-9.4-2-15.1-0.9l-0.9,0.2v0.9c0,0.5-0.6,3.3-0.7,4.1
				c-6.8-1.2-11.9-1.4-16.8-0.9c-0.2-1.4-0.5-3-0.5-3.1l-0.1-0.7l-0.7-0.1c-0.6-0.1-15.3-2.6-22.8,5.3l-0.4,0.4l0.2,0.6
				c0.5,1.9,1.1,4,1.1,4.9c-6.6,3.7-13.1,9.4-15.4,12.4c-0.9-1.5-2.9-4.6-2.9-4.6l-0.4,0.3c-8.2,4.6-11.9,11.2-13.6,12.3
				c0.4,0.5,0.8,0.9,1.1,1.2c0.8,1,1.5,1.9,2.6,3.1c-0.9,1.5-5,4.1-6.7,5.5c-2.1-4.7-3.8-9.6-5-14.7c-1.4,0.6-2.7,1.1-3.9,1.6
				c-8.2,3.2-17.8,9.8-23.5,17.5c1.5,3.2,3.2,6.3,5.1,9.3c-2.6,1.1-6.3,2.3-9.6,2.3l0,0c-0.9,0-1.7-0.1-2.4-0.3
				c1.1-13,17.1-25.7,29.7-30.7c14.4-5.6,36.3-17.6,44.2-37.2c3.6-9,9.2-32.9-10.8-50.8c0.6-0.4,2.2-1.4,2.7-1.7
				c8.7-4.9,19-7.6,31-7.4C175.8,49.6,194.5,99.4,187.7,141.8z"/>
			<g id="XMLID_2957_">
				<g id="XMLID_2963_">
					
						<ellipse id="XMLID_2965_" transform="matrix(0.9855 -0.1697 0.1697 0.9855 -21.8392 23.08)" class="st0" cx="124.1" cy="139.3" rx="6.8" ry="4.4"/>
				</g>
				<g id="XMLID_2959_">
					<path id="XMLID_2961_" class="st0" d="M123.6,132.9c0,0-0.1,0-0.3,0.1c-0.2,0-0.4,0.1-0.7,0.2s-0.7,0.2-1.1,0.4
						s-0.9,0.4-1.3,0.6c-0.5,0.3-0.9,0.6-1.4,1s-0.9,0.8-1.3,1.3s-0.8,1.1-1,1.6c-0.3,0.6-0.4,1.2-0.5,1.8c0,0.6,0.1,1.2,0.3,1.7
						c0.1,0.3,0.3,0.5,0.5,0.8c0.2,0.2,0.4,0.5,0.6,0.7c0.5,0.4,1,0.8,1.5,1.1s1.1,0.6,1.6,0.8s1,0.4,1.4,0.5s0.8,0.3,1.1,0.4
						s0.6,0.2,0.7,0.2c0.2,0.1,0.3,0.1,0.3,0.1s-0.1,0-0.3,0s-0.4,0-0.8,0c-0.2,0-0.4,0-0.6,0s-0.4,0-0.7,0c-0.5,0-1-0.1-1.6-0.2
						s-1.2-0.3-1.9-0.5s-1.3-0.6-2-1.1c-0.6-0.5-1.2-1.1-1.7-1.9c-0.4-0.8-0.6-1.7-0.6-2.7c0-0.9,0.3-1.8,0.7-2.5
						c0.2-0.4,0.4-0.7,0.7-1.1c0.2-0.3,0.5-0.6,0.8-0.9c0.5-0.6,1.1-1,1.8-1.4c0.6-0.4,1.2-0.6,1.8-0.8c0.6-0.2,1.1-0.3,1.6-0.3
						c0.5-0.1,0.9,0,1.2,0c0.2,0,0.3,0,0.5,0c0.1,0,0.2,0,0.3,0.1C123.5,132.9,123.6,132.9,123.6,132.9z"/>
				</g>
			</g>
			<g id="XMLID_2947_">
				<g id="XMLID_2953_">
					
						<ellipse id="XMLID_2955_" transform="matrix(0.7982 -0.6024 0.6024 0.7982 -69.8448 89.91)" class="st0" cx="99.3" cy="149.2" rx="5.4" ry="3.5"/>
				</g>
				<g id="XMLID_2949_">
					<path id="XMLID_2951_" class="st0" d="M96.6,144.9c0,0-0.1,0-0.2,0.1s-0.3,0.2-0.5,0.4s-0.4,0.4-0.6,0.7s-0.5,0.6-0.7,0.9
						c-0.2,0.4-0.5,0.8-0.6,1.2c-0.2,0.4-0.3,0.9-0.4,1.4s-0.1,1-0.1,1.5s0.1,1,0.3,1.4s0.5,0.8,0.9,1.1c0.2,0.1,0.4,0.3,0.6,0.4
						c0.2,0.1,0.4,0.2,0.7,0.3c0.5,0.1,1,0.2,1.4,0.2c0.5,0,0.9,0,1.4,0c0.4,0,0.8-0.1,1.2-0.1c0.4-0.1,0.7-0.1,0.9-0.2
						c0.3,0,0.5-0.1,0.6-0.1s0.2,0,0.2,0s-0.1,0-0.2,0.1s-0.3,0.2-0.5,0.3c-0.1,0.1-0.2,0.1-0.4,0.2c-0.1,0.1-0.3,0.1-0.5,0.2
						c-0.3,0.2-0.7,0.3-1.2,0.4s-1,0.3-1.5,0.3c-0.6,0.1-1.2,0.1-1.8,0s-1.3-0.3-1.9-0.8c-0.6-0.4-1.1-1-1.4-1.7s-0.4-1.4-0.4-2
						c0-0.3,0-0.7,0.1-1s0.1-0.6,0.2-0.9c0.2-0.6,0.4-1.1,0.7-1.6s0.6-0.9,1-1.2c0.3-0.3,0.7-0.6,1-0.8s0.6-0.4,0.9-0.5
						c0.1-0.1,0.2-0.1,0.3-0.1s0.2-0.1,0.3-0.1C96.5,144.9,96.6,144.9,96.6,144.9z"/>
				</g>
			</g>
			<g id="XMLID_2937_">
				<g id="XMLID_2943_">
					
						<ellipse id="XMLID_2945_" transform="matrix(0.3786 -0.9256 0.9256 0.3786 2.9925 59.4315)" class="st0" cx="45.8" cy="27.5" rx="3.2" ry="1.9"/>
				</g>
				<g id="XMLID_2939_">
					<path id="XMLID_2941_" class="st0" d="M43.1,27.4c0,0,0,0,0,0.1s0,0.2-0.1,0.3c0,0.1-0.1,0.3-0.1,0.5s0,0.4,0,0.6
						s0,0.4,0.1,0.7c0.1,0.2,0.1,0.5,0.2,0.7s0.2,0.5,0.4,0.7s0.4,0.4,0.6,0.5s0.4,0.2,0.7,0.2c0.1,0,0.2,0,0.4,0
						c0.1,0,0.2-0.1,0.4-0.1c0.2-0.1,0.4-0.2,0.6-0.3s0.4-0.3,0.5-0.4c0.2-0.1,0.3-0.3,0.4-0.4c0.1-0.1,0.2-0.2,0.3-0.3
						c0.1-0.1,0.2-0.2,0.2-0.2c0.1-0.1,0.1-0.1,0.1-0.1s0,0,0,0.1s-0.1,0.2-0.1,0.3s-0.1,0.1-0.1,0.2s-0.1,0.2-0.1,0.2
						c-0.1,0.2-0.2,0.3-0.3,0.5s-0.3,0.4-0.5,0.6c-0.2,0.2-0.4,0.4-0.7,0.5s-0.6,0.2-1,0.3c-0.4,0-0.7-0.1-1-0.3s-0.6-0.4-0.8-0.7
						c-0.1-0.1-0.2-0.3-0.3-0.4s-0.1-0.3-0.2-0.4c-0.1-0.3-0.2-0.6-0.2-0.9s0-0.5,0-0.8c0-0.2,0.1-0.5,0.2-0.6
						c0.1-0.2,0.1-0.3,0.2-0.5c0-0.1,0.1-0.1,0.1-0.2C42.9,27.6,43,27.5,43.1,27.4C43,27.5,43.1,27.4,43.1,27.4z"/>
				</g>
			</g>
			<g id="XMLID_2927_">
				<g id="XMLID_2933_">
					
						<ellipse id="XMLID_2935_" transform="matrix(0.9579 -0.2871 0.2871 0.9579 -9.2221 14.4914)" class="st0" cx="44.8" cy="38.7" rx="2.2" ry="3.5"/>
				</g>
				<g id="XMLID_2929_">
					<path id="XMLID_2931_" class="st0" d="M42.3,40.5C42.3,40.5,42.3,40.5,42.3,40.5c0.1,0.2,0.2,0.3,0.3,0.4s0.2,0.3,0.3,0.5
						s0.3,0.4,0.5,0.6c0.2,0.2,0.4,0.4,0.7,0.6c0.2,0.2,0.5,0.3,0.8,0.5c0.3,0.1,0.6,0.2,0.9,0.3c0.3,0,0.6,0,0.9,0
						c0.3-0.1,0.6-0.2,0.8-0.4c0.1-0.1,0.2-0.2,0.3-0.3s0.2-0.3,0.2-0.4c0.1-0.3,0.2-0.6,0.3-0.9c0.1-0.3,0.1-0.6,0.2-0.9
						c0-0.3,0.1-0.5,0.1-0.8c0-0.2,0-0.4,0-0.6c0-0.2,0-0.3,0-0.4c0-0.1,0-0.1,0-0.1s0,0,0,0.1s0.1,0.2,0.1,0.4
						c0,0.1,0.1,0.2,0.1,0.3s0.1,0.2,0.1,0.3c0.1,0.2,0.1,0.5,0.1,0.8s0,0.6,0,1s-0.1,0.7-0.3,1.1c-0.1,0.4-0.4,0.8-0.7,1.1
						s-0.8,0.5-1.2,0.6s-0.9,0.1-1.3,0c-0.2,0-0.4-0.1-0.6-0.2c-0.2-0.1-0.4-0.2-0.5-0.3c-0.3-0.2-0.6-0.4-0.9-0.7
						c-0.3-0.2-0.5-0.5-0.6-0.8c-0.2-0.3-0.3-0.5-0.4-0.7s-0.1-0.4-0.2-0.6c0-0.1,0-0.2,0-0.2C42.3,40.7,42.3,40.7,42.3,40.5
						C42.3,40.5,42.3,40.5,42.3,40.5z"/>
				</g>
			</g>
			<g id="XMLID_2917_">
				<g id="XMLID_2923_">
					
						<ellipse id="XMLID_2925_" transform="matrix(0.7892 -0.6141 0.6141 0.7892 -19.1346 42.8855)" class="st0" cx="52.9" cy="49.3" rx="2.5" ry="3.9"/>
				</g>
				<g id="XMLID_2919_">
					<path id="XMLID_2921_" class="st0" d="M50.8,51.9C50.8,51.9,50.8,51.9,50.8,51.9c0.2,0.2,0.3,0.3,0.4,0.4s0.3,0.3,0.5,0.4
						c0.2,0.1,0.4,0.3,0.7,0.4c0.3,0.1,0.6,0.3,0.9,0.4c0.3,0.1,0.7,0.2,1,0.2c0.4,0,0.7,0,1.1,0c0.4-0.1,0.7-0.2,1-0.3
						c0.3-0.2,0.5-0.4,0.7-0.7c0.1-0.1,0.2-0.3,0.2-0.5c0.1-0.2,0.1-0.3,0.1-0.5c0.1-0.3,0.1-0.7,0-1c0-0.3-0.1-0.7-0.1-1
						c-0.1-0.3-0.1-0.6-0.2-0.8c-0.1-0.3-0.1-0.5-0.2-0.6c-0.1-0.2-0.1-0.3-0.1-0.4c0-0.1,0-0.2,0-0.2s0,0,0.1,0.1s0.2,0.2,0.3,0.4
						c0.1,0.1,0.1,0.2,0.2,0.3s0.1,0.2,0.2,0.3c0.1,0.2,0.3,0.5,0.4,0.8s0.2,0.7,0.3,1c0.1,0.4,0.1,0.8,0.1,1.3s-0.1,0.9-0.4,1.4
						c-0.2,0.4-0.6,0.8-1.1,1.1c-0.4,0.3-0.9,0.4-1.4,0.5c-0.2,0-0.5,0-0.7,0s-0.5,0-0.7-0.1c-0.4-0.1-0.8-0.2-1.2-0.4
						S52.2,54,52,53.8c-0.3-0.2-0.5-0.4-0.7-0.7c-0.2-0.2-0.3-0.4-0.4-0.6c0-0.1-0.1-0.2-0.1-0.2c0-0.1-0.1-0.1-0.1-0.2
						C50.8,52,50.8,51.9,50.8,51.9z"/>
				</g>
			</g>
			<g id="XMLID_2907_">
				<g id="XMLID_2913_">
					
						<ellipse id="XMLID_2915_" transform="matrix(0.2316 -0.9728 0.9728 0.2316 -18.6238 256.4438)" class="st0" cx="153" cy="140" rx="5.7" ry="9"/>
				</g>
				<g id="XMLID_2909_">
					<path id="XMLID_2911_" class="st0" d="M155.6,132c0,0-0.1,0-0.4-0.1c-0.2-0.1-0.6-0.1-1-0.2s-0.9-0.1-1.5-0.2
						c-0.6,0-1.2,0-1.9,0.1s-1.5,0.2-2.2,0.4c-0.8,0.2-1.5,0.5-2.3,0.9s-1.5,0.9-2.1,1.5s-1.2,1.3-1.5,2c-0.4,0.7-0.5,1.5-0.5,2.3
						c0,0.4,0.1,0.8,0.2,1.2c0.1,0.4,0.2,0.8,0.4,1.2c0.3,0.7,0.8,1.5,1.3,2.1s1,1.2,1.5,1.7c0.3,0.3,0.5,0.5,0.8,0.7
						c0.1,0.1,0.2,0.2,0.4,0.3c0.1,0.1,0.2,0.2,0.3,0.3c0.2,0.2,0.4,0.4,0.6,0.5c0.2,0.2,0.4,0.3,0.6,0.5c0.3,0.3,0.6,0.5,0.8,0.6
						s0.3,0.2,0.3,0.2s-0.1,0-0.3-0.1s-0.5-0.2-0.9-0.4c-0.2-0.1-0.4-0.2-0.7-0.3c-0.2-0.1-0.5-0.2-0.8-0.4
						c-0.5-0.3-1.1-0.6-1.8-1.1c-0.6-0.4-1.3-1-1.9-1.6c-0.6-0.6-1.3-1.4-1.8-2.3s-0.9-2-1-3.1s0.2-2.3,0.7-3.4
						c0.5-1,1.3-1.9,2.1-2.6c0.4-0.4,0.9-0.7,1.3-0.9c0.5-0.3,0.9-0.5,1.4-0.7c0.9-0.4,1.9-0.6,2.8-0.8c0.9-0.1,1.8-0.1,2.5-0.1
						c0.8,0.1,1.5,0.2,2.1,0.4s1.1,0.4,1.5,0.6c0.2,0.1,0.4,0.2,0.5,0.3c0.2,0.1,0.3,0.2,0.4,0.2C155.5,131.9,155.6,132,155.6,132z"
						/>
				</g>
			</g>
		</g>
	</g>
</g>
<g id="Layer_2">
</g>
</svg>
