<?xml version="1.0" encoding="utf-8"?>
<!-- Generator: Adobe Illustrator 19.0.0, SVG Export Plug-In . SVG Version: 6.00 Build 0)  -->
<svg version="1.1" id="Layer_1" xmlns="http://www.w3.org/2000/svg" xmlns:xlink="http://www.w3.org/1999/xlink" x="0px" y="0px"
	 viewBox="0 0 566.9 566.9" style="enable-background:new 0 0 566.9 566.9;" xml:space="preserve">
<style type="text/css">
	.st0{fill:#5F4B8B;}
	.st1{font-family:'WarnockPro-SemiboldCapt';}
	.st2{font-size:52.4646px;}
	.st3{letter-spacing:2;}
	.st4{letter-spacing:3;}
</style>
<g id="XMLID_1_">
	<g id="XMLID_2905_">
		<g id="XMLID_3003_">
			<path id="XMLID_3005_" class="st0" d="M143.5,359.6"/>
		</g>
		<g id="XMLID_2999_">
			<path id="XMLID_3001_" class="st0" d="M207.7,316"/>
		</g>
		<g id="XMLID_2995_">
			<path id="XMLID_2997_" class="st0" d="M210.4,320.5"/>
		</g>
		<g id="XMLID_2991_">
			<path id="XMLID_2993_" class="st0" d="M79.4,213.9"/>
		</g>
		<g id="XMLID_2971_">
			<path id="XMLID_2989_" class="st0" d="M204.1,301.6l0.1,0C204.2,301.5,204.1,301.5,204.1,301.6z"/>
			<path id="XMLID_2973_" class="st0" d="M252.6,283c-6-38.5-36.4-68.8-75-74.7c-23.3-3.6-42.3,0.2-58.3,10.4
				c-5.5-3.6-14.5-5.3-20-13.6c-2.2-3.2,0.6-8.6,2.5-10.9c3-3.9,6.9-7.8,4.3-12.5c-5-9.3-17.8,7.9-19.5,10.3l-2.6-0.7
				c-1.9,0.9-4.4,6.3-4.2,9.2c0.4,0,1.9,0.7,1.9,0.7l-0.9,5c-0.6,0.2-3,0.3-3,0.3c-0.9,1.4,0.1,8.4,1.9,9.4c0,0,3-0.8,3.1-0.8
				c0.6,1.2,1.9,3.5,2.9,5.1c0,0-2.8,1.8-2.7,2.3c0.2,1.7,4.4,6.3,6.3,7.1c1.1-0.9,2.7-2.1,3-2.3c0.8,1.4,4.3,4.2,7.5,6.4
				c-15.7,15.6-25.6,36.9-26.5,60.6c8.3-4.2,17.2-6.1,25.7-7.9c2.8-0.6,5.5-1.2,8.1-1.8c1.5-13.8,5.9-27.1,13.2-38.1
				c1.3,0.3,2.6,1,3.9,2c5.6,4.4,10.2,14.6,8.3,23.7c-0.5,0.6-0.9,1.3-1.5,1.9c-17.7,21.3-58,6.3-76.5,41.7
				c-11.5,22-2,56.5,24.8,59.9c14,1.8,18.5,1.2,30.9-5.1c14.9,10.9,33.4,17.4,53.3,17.4C218,388,261.4,339.4,252.6,283z M101,232.2
				c-3.1-1.9-7-4.9-8.6-7c0,0-2.6,1.8-3.2,2.5c-1.2-0.7-4-3.6-4.8-5c0,0,1.4-1,2.9-2.2c-0.8-1.1-3.7-5.5-3.9-6.6
				c-1.9,0.4-3.1,0.6-3.2,0.6c-1.5-1-1.9-5.7-1.3-7c0.9-0.2,2.1-0.2,3.2-0.2c-0.2-3.1,1.1-7.5,1.2-7.4l-2-1.1c0.5-1.1,2-5.4,2.9-6.2
				c0.6,0.3,2.8,0.5,3.6,1.3c3-6,16.4-16.6,11-4.9c-1.1,2.5-3,4.6-4.1,6.5c-5.4,9.9,2.6,19.6,15.8,28.5
				C108.9,225.6,102.5,230.8,101,232.2z M132.4,258.5c-1.7-4.6-4.4-8.6-7.6-11.1c-1.3-1-2.6-1.7-3.9-2.1c1.1-1.6,2.3-3.1,3.5-4.6
				c0.5-0.5,1-0.9,1.5-1.4c10.8,8.4,15,18.5,8.1,30.3C134.3,265.9,133.7,262.1,132.4,258.5z M77.7,358.4c-2-2.8-2.9-5.8-3.1-8.7
				c0.7,0.2,1.6,0.2,2.4,0.2c0,0,0,0,0.1,0c3.6,0,7.8-1.3,10.8-2.6c3.6,5.4,7.7,10.4,12.3,14.9C91.3,371,81.6,364,77.7,358.4z
				 M171.6,371.6c-18.3,0-32.6-7.8-43.2-18.4c18.9-24.7,47.4-24.1,61.3-17c5.6,2.9,11.8,5.8,12.1,13.6
				C202.2,359,189.2,371.6,171.6,371.6z M224.3,335.3c-3.5-6.8-10.7-15.1-15.4-15.9c0.1,3.8-1.9,6.9-5.4,6.7
				c-9.6-4.6-29.4-9.4-53.8-0.6c-15.1,5.7-23.9,15.8-27.4,20.5c-2.8-3.8-5.2-7.8-7.3-12.1c0.1-0.1,0.2-0.1,0.2-0.1l5.8-5.1l2.4-2
				l-3.6-4.3c2.8-5.2,10.7-9.9,11.1-9.4c0.4,0.5,1,1.4,1.5,2.2c-0.2,2.1-0.2,2-0.6,4.1c5.6-7.7,22.6-18.3,24.7-18.5l-5.2-0.2
				c0-0.9-0.5-2.7-0.7-3.8c6-5.6,16.9-4.7,19.8-4.4c0.1,0.6,0.1,1.4,0.2,2.2c0,0,0-0.3-1.8,2.3c10-1.6,15.8-1.2,26,0.9
				c-1.3-1.4-2.6-3-2.6-3c0-0.4,0.3-2.4,0.3-2.8c10.6-1.9,16.3,1.9,20,5.7c-0.1,0.5-0.6,1-2.8,3.2l-5.4,0.5
				c1.5,0.4,14.5,9.6,17.5,14.7c3.7-0.1,6.8-0.1,8.4,0C228.8,322.9,226.8,329.3,224.3,335.3z M230.7,312.8c-1.9,0.3-6.6,1.1-8.3,1.6
				c-1.9-2.5-8.3-8.2-12.1-10.6c1.1-1.3,4-4.6,4.3-6.1l0.1-0.5l-0.4-0.4c-1.8-1.8-4.3-4.1-8-5.6c-4.3-1.7-9.4-2-15.1-0.9l-0.9,0.2
				v0.9c0,0.5-0.6,3.3-0.7,4.1c-6.8-1.2-11.9-1.4-16.8-0.9c-0.2-1.4-0.5-3-0.5-3.1l-0.1-0.7l-0.7-0.1c-0.6-0.1-15.3-2.6-22.8,5.3
				l-0.4,0.4l0.2,0.6c0.5,1.9,1.1,4,1.1,4.9c-6.6,3.7-13.1,9.4-15.4,12.4c-0.9-1.5-2.9-4.6-2.9-4.6l-0.4,0.3
				c-8.2,4.6-11.9,11.2-13.6,12.3c0.4,0.5,0.8,0.9,1.1,1.2c0.8,1,1.5,1.9,2.6,3.1c-0.9,1.5-5,4.1-6.7,5.5c-2.1-4.7-3.8-9.6-5-14.7
				c-1.4,0.6-2.7,1.1-3.9,1.6c-8.2,3.2-17.8,9.8-23.5,17.5c1.5,3.2,3.2,6.3,5.1,9.3c-2.6,1.1-6.3,2.3-9.6,2.3c0,0,0,0,0,0
				c-0.9,0-1.7-0.1-2.4-0.3c1.1-13,17.1-25.7,29.7-30.7c14.4-5.6,36.3-17.6,44.2-37.2c3.6-9,9.2-32.9-10.8-50.8
				c0.6-0.4,2.2-1.4,2.7-1.7c8.7-4.9,19-7.6,31-7.4C218.8,220.6,237.5,270.4,230.7,312.8z"/>
		</g>
		<g id="XMLID_2967_">
			<path id="XMLID_2969_" class="st0" d="M176.2,248.6"/>
		</g>
		<g id="XMLID_2957_">
			<g id="XMLID_2963_">
				
					<ellipse id="XMLID_2965_" transform="matrix(0.9855 -0.1697 0.1697 0.9855 -50.2381 32.863)" class="st0" cx="167.1" cy="310.3" rx="6.8" ry="4.4"/>
			</g>
			<g id="XMLID_2959_">
				<path id="XMLID_2961_" class="st0" d="M166.6,303.9c0,0-0.1,0-0.3,0.1c-0.2,0-0.4,0.1-0.7,0.2c-0.3,0.1-0.7,0.2-1.1,0.4
					c-0.4,0.2-0.9,0.4-1.3,0.6c-0.5,0.3-0.9,0.6-1.4,1c-0.5,0.4-0.9,0.8-1.3,1.3c-0.4,0.5-0.8,1.1-1,1.6c-0.3,0.6-0.4,1.2-0.5,1.8
					c0,0.6,0.1,1.2,0.3,1.7c0.1,0.3,0.3,0.5,0.5,0.8c0.2,0.2,0.4,0.5,0.6,0.7c0.5,0.4,1,0.8,1.5,1.1c0.5,0.3,1.1,0.6,1.6,0.8
					c0.5,0.2,1,0.4,1.4,0.5c0.4,0.1,0.8,0.3,1.1,0.4c0.3,0.1,0.6,0.2,0.7,0.2c0.2,0.1,0.3,0.1,0.3,0.1s-0.1,0-0.3,0
					c-0.2,0-0.4,0-0.8,0c-0.2,0-0.4,0-0.6,0c-0.2,0-0.4,0-0.7,0c-0.5,0-1-0.1-1.6-0.2c-0.6-0.1-1.2-0.3-1.9-0.5
					c-0.7-0.2-1.3-0.6-2-1.1c-0.6-0.5-1.2-1.1-1.7-1.9c-0.4-0.8-0.6-1.7-0.6-2.7c0-0.9,0.3-1.8,0.7-2.5c0.2-0.4,0.4-0.7,0.7-1.1
					c0.2-0.3,0.5-0.6,0.8-0.9c0.5-0.6,1.1-1,1.8-1.4c0.6-0.4,1.2-0.6,1.8-0.8c0.6-0.2,1.1-0.3,1.6-0.3c0.5-0.1,0.9,0,1.2,0
					c0.2,0,0.3,0,0.5,0c0.1,0,0.2,0,0.3,0.1C166.5,303.9,166.6,303.9,166.6,303.9z"/>
			</g>
		</g>
		<g id="XMLID_2947_">
			<g id="XMLID_2953_">
				
					<ellipse id="XMLID_2955_" transform="matrix(0.7982 -0.6024 0.6024 0.7982 -164.1863 150.382)" class="st0" cx="142.3" cy="320.2" rx="5.4" ry="3.5"/>
			</g>
			<g id="XMLID_2949_">
				<path id="XMLID_2951_" class="st0" d="M139.6,315.9c0,0-0.1,0-0.2,0.1c-0.1,0.1-0.3,0.2-0.5,0.4c-0.2,0.2-0.4,0.4-0.6,0.7
					c-0.2,0.3-0.5,0.6-0.7,0.9c-0.2,0.4-0.5,0.8-0.6,1.2c-0.2,0.4-0.3,0.9-0.4,1.4c-0.1,0.5-0.1,1-0.1,1.5c0,0.5,0.1,1,0.3,1.4
					c0.2,0.4,0.5,0.8,0.9,1.1c0.2,0.1,0.4,0.3,0.6,0.4c0.2,0.1,0.4,0.2,0.7,0.3c0.5,0.1,1,0.2,1.4,0.2c0.5,0,0.9,0,1.4,0
					c0.4,0,0.8-0.1,1.2-0.1c0.4-0.1,0.7-0.1,0.9-0.2c0.3,0,0.5-0.1,0.6-0.1c0.1,0,0.2,0,0.2,0s-0.1,0-0.2,0.1
					c-0.1,0.1-0.3,0.2-0.5,0.3c-0.1,0.1-0.2,0.1-0.4,0.2c-0.1,0.1-0.3,0.1-0.5,0.2c-0.3,0.2-0.7,0.3-1.2,0.4c-0.5,0.1-1,0.3-1.5,0.3
					c-0.6,0.1-1.2,0.1-1.8,0c-0.6-0.1-1.3-0.3-1.9-0.8c-0.6-0.4-1.1-1-1.4-1.7c-0.3-0.7-0.4-1.4-0.4-2c0-0.3,0-0.7,0.1-1
					c0.1-0.3,0.1-0.6,0.2-0.9c0.2-0.6,0.4-1.1,0.7-1.6c0.3-0.5,0.6-0.9,1-1.2c0.3-0.3,0.7-0.6,1-0.8c0.3-0.2,0.6-0.4,0.9-0.5
					c0.1-0.1,0.2-0.1,0.3-0.1c0.1,0,0.2-0.1,0.3-0.1C139.5,315.9,139.6,315.9,139.6,315.9z"/>
			</g>
		</g>
		<g id="XMLID_2937_">
			<g id="XMLID_2943_">
				
					<ellipse id="XMLID_2945_" transform="matrix(-0.3786 0.9255 -0.9255 -0.3786 305.9216 191.4756)" class="st0" cx="88.7" cy="198.4" rx="3.2" ry="1.9"/>
			</g>
			<g id="XMLID_2939_">
				<path id="XMLID_2941_" class="st0" d="M86.1,198.4c0,0,0,0,0,0.1c0,0.1,0,0.2-0.1,0.3c0,0.1-0.1,0.3-0.1,0.5c0,0.2,0,0.4,0,0.6
					c0,0.2,0,0.4,0.1,0.7c0.1,0.2,0.1,0.5,0.2,0.7c0.1,0.2,0.2,0.5,0.4,0.7c0.2,0.2,0.4,0.4,0.6,0.5c0.2,0.1,0.4,0.2,0.7,0.2
					c0.1,0,0.2,0,0.4,0c0.1,0,0.2-0.1,0.4-0.1c0.2-0.1,0.4-0.2,0.6-0.3c0.2-0.1,0.4-0.3,0.5-0.4c0.2-0.1,0.3-0.3,0.4-0.4
					c0.1-0.1,0.2-0.2,0.3-0.3c0.1-0.1,0.2-0.2,0.2-0.2c0.1-0.1,0.1-0.1,0.1-0.1s0,0,0,0.1c0,0.1-0.1,0.2-0.1,0.3
					c0,0.1-0.1,0.1-0.1,0.2c0,0.1-0.1,0.2-0.1,0.2c-0.1,0.2-0.2,0.3-0.3,0.5c-0.1,0.2-0.3,0.4-0.5,0.6c-0.2,0.2-0.4,0.4-0.7,0.5
					c-0.3,0.1-0.6,0.2-1,0.3c-0.4,0-0.7-0.1-1-0.3c-0.3-0.2-0.6-0.4-0.8-0.7c-0.1-0.1-0.2-0.3-0.3-0.4c-0.1-0.1-0.1-0.3-0.2-0.4
					c-0.1-0.3-0.2-0.6-0.2-0.9c0-0.3,0-0.5,0-0.8c0-0.2,0.1-0.5,0.2-0.6c0.1-0.2,0.1-0.3,0.2-0.5c0-0.1,0.1-0.1,0.1-0.2
					C85.9,198.6,86,198.5,86.1,198.4C86,198.5,86.1,198.4,86.1,198.4z"/>
			</g>
		</g>
		<g id="XMLID_2927_">
			<g id="XMLID_2933_">
				
					<ellipse id="XMLID_2935_" transform="matrix(0.2871 0.9579 -0.9579 0.2871 263.4353 65.3821)" class="st0" cx="87.8" cy="209.7" rx="3.5" ry="2.2"/>
			</g>
			<g id="XMLID_2929_">
				<path id="XMLID_2931_" class="st0" d="M85.3,211.5c0,0,0,0,0.1,0.1c0,0.1,0.1,0.2,0.2,0.3c0.1,0.1,0.2,0.3,0.3,0.5
					c0.1,0.2,0.3,0.4,0.5,0.6c0.2,0.2,0.4,0.4,0.7,0.6c0.2,0.2,0.5,0.3,0.8,0.5c0.3,0.1,0.6,0.2,0.9,0.3c0.3,0,0.6,0,0.9,0
					c0.3-0.1,0.6-0.2,0.8-0.4c0.1-0.1,0.2-0.2,0.3-0.3c0.1-0.1,0.2-0.3,0.2-0.4c0.1-0.3,0.2-0.6,0.3-0.9c0.1-0.3,0.1-0.6,0.2-0.9
					c0-0.3,0.1-0.5,0.1-0.8c0-0.2,0-0.4,0-0.6c0-0.2,0-0.3,0-0.4c0-0.1,0-0.1,0-0.1s0,0,0,0.1c0,0.1,0.1,0.2,0.1,0.4
					c0,0.1,0.1,0.2,0.1,0.3c0,0.1,0.1,0.2,0.1,0.3c0.1,0.2,0.1,0.5,0.1,0.8c0,0.3,0,0.6,0,1c0,0.4-0.1,0.7-0.3,1.1
					c-0.1,0.4-0.4,0.8-0.7,1.1c-0.3,0.3-0.8,0.5-1.2,0.6c-0.4,0.1-0.9,0.1-1.3,0c-0.2,0-0.4-0.1-0.6-0.2c-0.2-0.1-0.4-0.2-0.5-0.3
					c-0.3-0.2-0.6-0.4-0.9-0.7c-0.3-0.2-0.5-0.5-0.6-0.8c-0.2-0.3-0.3-0.5-0.4-0.7c-0.1-0.2-0.1-0.4-0.2-0.6c0-0.1,0-0.2,0-0.2
					c0-0.1,0-0.1,0-0.2C85.3,211.5,85.3,211.5,85.3,211.5z"/>
			</g>
		</g>
		<g id="XMLID_2917_">
			<g id="XMLID_2923_">
				
					<ellipse id="XMLID_2925_" transform="matrix(0.6141 0.7892 -0.7892 0.6141 210.8975 9.3268)" class="st0" cx="95.9" cy="220.3" rx="3.9" ry="2.5"/>
			</g>
			<g id="XMLID_2919_">
				<path id="XMLID_2921_" class="st0" d="M93.8,222.9c0,0,0,0,0.1,0.1c0.1,0.1,0.2,0.2,0.3,0.3c0.1,0.1,0.3,0.3,0.5,0.4
					c0.2,0.1,0.4,0.3,0.7,0.4c0.3,0.1,0.6,0.3,0.9,0.4c0.3,0.1,0.7,0.2,1,0.2c0.4,0,0.7,0,1.1,0c0.4-0.1,0.7-0.2,1-0.3
					c0.3-0.2,0.5-0.4,0.7-0.7c0.1-0.1,0.2-0.3,0.2-0.5c0.1-0.2,0.1-0.3,0.1-0.5c0.1-0.3,0.1-0.7,0-1c0-0.3-0.1-0.7-0.1-1
					c-0.1-0.3-0.1-0.6-0.2-0.8c-0.1-0.3-0.1-0.5-0.2-0.6c-0.1-0.2-0.1-0.3-0.1-0.4c0-0.1,0-0.2,0-0.2s0,0,0.1,0.1
					c0.1,0.1,0.2,0.2,0.3,0.4c0.1,0.1,0.1,0.2,0.2,0.3c0.1,0.1,0.1,0.2,0.2,0.3c0.1,0.2,0.3,0.5,0.4,0.8c0.1,0.3,0.2,0.7,0.3,1
					c0.1,0.4,0.1,0.8,0.1,1.3c0,0.5-0.1,0.9-0.4,1.4c-0.2,0.4-0.6,0.8-1.1,1.1c-0.4,0.3-0.9,0.4-1.4,0.5c-0.2,0-0.5,0-0.7,0
					c-0.2,0-0.5,0-0.7-0.1c-0.4-0.1-0.8-0.2-1.2-0.4c-0.4-0.2-0.7-0.4-0.9-0.6c-0.3-0.2-0.5-0.4-0.7-0.7c-0.2-0.2-0.3-0.4-0.4-0.6
					c0-0.1-0.1-0.2-0.1-0.2c0-0.1-0.1-0.1-0.1-0.2C93.8,223,93.8,222.9,93.8,222.9z"/>
			</g>
		</g>
		<g id="XMLID_2907_">
			<g id="XMLID_2913_">
				
					<ellipse id="XMLID_2915_" transform="matrix(0.9728 0.2316 -0.2316 0.9728 77.376 -36.9435)" class="st0" cx="196" cy="311" rx="9" ry="5.7"/>
			</g>
			<g id="XMLID_2909_">
				<path id="XMLID_2911_" class="st0" d="M198.6,303c0,0-0.1,0-0.4-0.1c-0.2-0.1-0.6-0.1-1-0.2c-0.4-0.1-0.9-0.1-1.5-0.2
					c-0.6,0-1.2,0-1.9,0.1c-0.7,0.1-1.5,0.2-2.2,0.4c-0.8,0.2-1.5,0.5-2.3,0.9c-0.8,0.4-1.5,0.9-2.1,1.5c-0.6,0.6-1.2,1.3-1.5,2
					c-0.4,0.7-0.5,1.5-0.5,2.3c0,0.4,0.1,0.8,0.2,1.2c0.1,0.4,0.2,0.8,0.4,1.2c0.3,0.7,0.8,1.5,1.3,2.1c0.5,0.6,1,1.2,1.5,1.7
					c0.3,0.3,0.5,0.5,0.8,0.7c0.1,0.1,0.2,0.2,0.4,0.3c0.1,0.1,0.2,0.2,0.3,0.3c0.2,0.2,0.4,0.4,0.6,0.5c0.2,0.2,0.4,0.3,0.6,0.5
					c0.3,0.3,0.6,0.5,0.8,0.6c0.2,0.1,0.3,0.2,0.3,0.2s-0.1,0-0.3-0.1c-0.2-0.1-0.5-0.2-0.9-0.4c-0.2-0.1-0.4-0.2-0.7-0.3
					c-0.2-0.1-0.5-0.2-0.8-0.4c-0.5-0.3-1.1-0.6-1.8-1.1c-0.6-0.4-1.3-1-1.9-1.6c-0.6-0.6-1.3-1.4-1.8-2.3c-0.5-0.9-0.9-2-1-3.1
					c-0.1-1.1,0.2-2.3,0.7-3.4c0.5-1,1.3-1.9,2.1-2.6c0.4-0.4,0.9-0.7,1.3-0.9c0.5-0.3,0.9-0.5,1.4-0.7c0.9-0.4,1.9-0.6,2.8-0.8
					c0.9-0.1,1.8-0.1,2.5-0.1c0.8,0.1,1.5,0.2,2.1,0.4c0.6,0.2,1.1,0.4,1.5,0.6c0.2,0.1,0.4,0.2,0.5,0.3c0.2,0.1,0.3,0.2,0.4,0.2
					C198.5,302.9,198.6,303,198.6,303z"/>
			</g>
		</g>
	</g>
	<text id="XMLID_2_" transform="matrix(1 0 0 1 262.7324 354.9416)"><tspan x="0" y="0" class="st0 st1 st2 st3">д</tspan><tspan x="31.7" y="0" class="st0 st1 st2 st4">р</tspan><tspan x="65" y="0" class="st0 st1 st2 st4">у</tspan><tspan x="93.9" y="0" class="st0 st1 st2 st3">карня</tspan></text>
	<g id="XMLID_3011_">
		<path id="XMLID_3013_" class="st0" d="M292.9,257.5c13.2,0,30.3,8.5,30.7,29c0.3,21.3-16.4,30.7-30.8,30.7c-14.3,0-31-9.3-31-29.3
			C261.7,268.9,277.5,257.5,292.9,257.5L292.9,257.5z M291.7,261.8c-10.9,0-16.9,10.7-16.9,24.6c0,13.7,7,26.6,19,26.6
			c12.9,0,16.8-13.7,16.8-25.3C310.5,276,304,261.8,291.7,261.8L291.7,261.8z"/>
		<path id="XMLID_3019_" class="st0" d="M366.8,257.5c6.2,0,10.2,1.4,12.7,2.7c2.8-1,6.3-1.8,8.4-2l0.5,0.5
			c-0.2,2.6-2.7,13.4-3.6,15.5l-2.6,1.2c-1.2-2.7-2.7-7.5-3.7-10.9c-1.6-1-4.8-2-8.8-2c-14.5,0-23.1,11.2-23.1,24.7
			c0,13.7,8.8,24.5,24.1,24.5c1.6,0,2.5-0.2,3.6-0.4c4.8-4.7,9.3-8.7,12.2-11l2.3,2c-1.2,3.7-5.8,10.9-7.2,12.4
			c-2.4,1-9.9,2.5-14.4,2.5c-16.6,0-33.2-8.8-33.2-29.5c0-21,18.5-30.2,32.6-30.2H366.8z"/>
		<path id="XMLID_3023_" class="st0" d="M440.9,259c2.6-0.4,6.9-1.1,8.8-1.3l0.4,0.5c-0.3,2.7-2.1,12.7-2.8,15.5l-1.8,0.6
			c-0.8-1.7-3.8-8.3-4.7-11.1l-12.3,0.5V284c0,21.3,0.3,23.3,0.5,25.5l10.3,2.7l-1.1,3.3c-5,0-10.1-0.1-15.1-0.1
			c-5.2,0-10.5,0.1-15.8,0.1l0.9-3.4l8.7-2.7c0.3-2.7,0.3-5.7,0.3-22.7v-23l-11.6-0.5c-1.7,2.9-4.6,7.6-6.6,10.1l-2,0.5
			c-0.2-2.7-0.1-13.1,0.3-15.8l0.6-0.4c1.5,0,6.3,0.9,8.1,1.3H440.9z"/>
		<path id="XMLID_3027_" class="st0" d="M486.8,257.5c13.2,0,30.3,8.5,30.7,29c0.3,21.3-16.4,30.7-30.8,30.7c-14.3,0-31-9.3-31-29.3
			C455.6,268.9,471.4,257.5,486.8,257.5L486.8,257.5z M485.6,261.8c-10.9,0-16.9,10.7-16.9,24.6c0,13.7,7,26.6,19,26.6
			c12.9,0,16.8-13.7,16.8-25.3C504.4,276,497.9,261.8,485.6,261.8L485.6,261.8z"/>
	</g>
</g>
</svg>
