<?xml version="1.0" encoding="utf-8"?>
<!-- Generator: Adobe Illustrator 21.1.0, SVG Export Plug-In . SVG Version: 6.00 Build 0)  -->
<svg version="1.1" id="Layer_1" xmlns="http://www.w3.org/2000/svg" xmlns:xlink="http://www.w3.org/1999/xlink" x="0px" y="0px"
	 viewBox="0 0 486 228" style="enable-background:new 0 0 486 228;" xml:space="preserve">
<style type="text/css">
	.st0{fill:#5F4B8B;}
	.st1{font-family:'ArialMT';}
	.st2{font-size:52.4646px;}
	.st3{letter-spacing:1;}
	.st4{letter-spacing:2;}
</style>
<g id="XMLID_1_">
	<g id="XMLID_2905_">
		<g id="XMLID_3003_">
			<path id="XMLID_3005_" class="st0" d="M98.5,191.6"/>
		</g>
		<g id="XMLID_2999_">
			<path id="XMLID_3001_" class="st0" d="M162.7,148"/>
		</g>
		<g id="XMLID_2995_">
			<path id="XMLID_2997_" class="st0" d="M165.4,152.5"/>
		</g>
		<g id="XMLID_2991_">
			<path id="XMLID_2993_" class="st0" d="M34.4,45.9"/>
		</g>
		<g id="XMLID_2971_">
			<path id="XMLID_2989_" class="st0" d="M159.1,133.6h0.1C159.2,133.5,159.1,133.5,159.1,133.6z"/>
			<path id="XMLID_2973_" class="st0" d="M207.6,115c-6-38.5-36.4-68.8-75-74.7c-23.3-3.6-42.3,0.2-58.3,10.4
				c-5.5-3.6-14.5-5.3-20-13.6c-2.2-3.2,0.6-8.6,2.5-10.9c3-3.9,6.9-7.8,4.3-12.5c-5-9.3-17.8,7.9-19.5,10.3L39,23.3
				c-1.9,0.9-4.4,6.3-4.2,9.2c0.4,0,1.9,0.7,1.9,0.7l-0.9,5c-0.6,0.2-3,0.3-3,0.3c-0.9,1.4,0.1,8.4,1.9,9.4c0,0,3-0.8,3.1-0.8
				c0.6,1.2,1.9,3.5,2.9,5.1c0,0-2.8,1.8-2.7,2.3c0.2,1.7,4.4,6.3,6.3,7.1c1.1-0.9,2.7-2.1,3-2.3c0.8,1.4,4.3,4.2,7.5,6.4
				c-15.7,15.6-25.6,36.9-26.5,60.6c8.3-4.2,17.2-6.1,25.7-7.9c2.8-0.6,5.5-1.2,8.1-1.8c1.5-13.8,5.9-27.1,13.2-38.1
				c1.3,0.3,2.6,1,3.9,2c5.6,4.4,10.2,14.6,8.3,23.7c-0.5,0.6-0.9,1.3-1.5,1.9c-17.7,21.3-58,6.3-76.5,41.7
				c-11.5,22-2,56.5,24.8,59.9c14,1.8,18.5,1.2,30.9-5.1c14.9,10.9,33.4,17.4,53.3,17.4C173,220,216.4,171.4,207.6,115z M56,64.2
				c-3.1-1.9-7-4.9-8.6-7c0,0-2.6,1.8-3.2,2.5c-1.2-0.7-4-3.6-4.8-5c0,0,1.4-1,2.9-2.2c-0.8-1.1-3.7-5.5-3.9-6.6
				c-1.9,0.4-3.1,0.6-3.2,0.6c-1.5-1-1.9-5.7-1.3-7c0.9-0.2,2.1-0.2,3.2-0.2c-0.2-3.1,1.1-7.5,1.2-7.4l-2-1.1c0.5-1.1,2-5.4,2.9-6.2
				c0.6,0.3,2.8,0.5,3.6,1.3c3-6,16.4-16.6,11-4.9c-1.1,2.5-3,4.6-4.1,6.5c-5.4,9.9,2.6,19.6,15.8,28.5C63.9,57.6,57.5,62.8,56,64.2
				z M87.4,90.5c-1.7-4.6-4.4-8.6-7.6-11.1c-1.3-1-2.6-1.7-3.9-2.1c1.1-1.6,2.3-3.1,3.5-4.6c0.5-0.5,1-0.9,1.5-1.4
				c10.8,8.4,15,18.5,8.1,30.3C89.3,97.9,88.7,94.1,87.4,90.5z M32.7,190.4c-2-2.8-2.9-5.8-3.1-8.7c0.7,0.2,1.6,0.2,2.4,0.2
				c0,0,0,0,0.1,0c3.6,0,7.8-1.3,10.8-2.6c3.6,5.4,7.7,10.4,12.3,14.9C46.3,203,36.6,196,32.7,190.4z M126.6,203.6
				c-18.3,0-32.6-7.8-43.2-18.4c18.9-24.7,47.4-24.1,61.3-17c5.6,2.9,11.8,5.8,12.1,13.6C157.2,191,144.2,203.6,126.6,203.6z
				 M179.3,167.3c-3.5-6.8-10.7-15.1-15.4-15.9c0.1,3.8-1.9,6.9-5.4,6.7c-9.6-4.6-29.4-9.4-53.8-0.6c-15.1,5.7-23.9,15.8-27.4,20.5
				c-2.8-3.8-5.2-7.8-7.3-12.1c0.1-0.1,0.2-0.1,0.2-0.1l5.8-5.1l2.4-2l-3.6-4.3c2.8-5.2,10.7-9.9,11.1-9.4s1,1.4,1.5,2.2
				c-0.2,2.1-0.2,2-0.6,4.1c5.6-7.7,22.6-18.3,24.7-18.5l-5.2-0.2c0-0.9-0.5-2.7-0.7-3.8c6-5.6,16.9-4.7,19.8-4.4
				c0.1,0.6,0.1,1.4,0.2,2.2c0,0,0-0.3-1.8,2.3c10-1.6,15.8-1.2,26,0.9c-1.3-1.4-2.6-3-2.6-3c0-0.4,0.3-2.4,0.3-2.8
				c10.6-1.9,16.3,1.9,20,5.7c-0.1,0.5-0.6,1-2.8,3.2l-5.4,0.5c1.5,0.4,14.5,9.6,17.5,14.7c3.7-0.1,6.8-0.1,8.4,0
				C183.8,154.9,181.8,161.3,179.3,167.3z M185.7,144.8c-1.9,0.3-6.6,1.1-8.3,1.6c-1.9-2.5-8.3-8.2-12.1-10.6c1.1-1.3,4-4.6,4.3-6.1
				l0.1-0.5l-0.4-0.4c-1.8-1.8-4.3-4.1-8-5.6c-4.3-1.7-9.4-2-15.1-0.9l-0.9,0.2v0.9c0,0.5-0.6,3.3-0.7,4.1
				c-6.8-1.2-11.9-1.4-16.8-0.9c-0.2-1.4-0.5-3-0.5-3.1l-0.1-0.7l-0.7-0.1c-0.6-0.1-15.3-2.6-22.8,5.3l-0.4,0.4l0.2,0.6
				c0.5,1.9,1.1,4,1.1,4.9c-6.6,3.7-13.1,9.4-15.4,12.4c-0.9-1.5-2.9-4.6-2.9-4.6l-0.4,0.3c-8.2,4.6-11.9,11.2-13.6,12.3
				c0.4,0.5,0.8,0.9,1.1,1.2c0.8,1,1.5,1.9,2.6,3.1c-0.9,1.5-5,4.1-6.7,5.5c-2.1-4.7-3.8-9.6-5-14.7c-1.4,0.6-2.7,1.1-3.9,1.6
				c-8.2,3.2-17.8,9.8-23.5,17.5c1.5,3.2,3.2,6.3,5.1,9.3c-2.6,1.1-6.3,2.3-9.6,2.3l0,0c-0.9,0-1.7-0.1-2.4-0.3
				c1.1-13,17.1-25.7,29.7-30.7c14.4-5.6,36.3-17.6,44.2-37.2c3.6-9,9.2-32.9-10.8-50.8c0.6-0.4,2.2-1.4,2.7-1.7
				c8.7-4.9,19-7.6,31-7.4C173.8,52.6,192.5,102.4,185.7,144.8z"/>
		</g>
		<g id="XMLID_2967_">
			<path id="XMLID_2969_" class="st0" d="M131.2,80.6"/>
		</g>
		<g id="XMLID_2957_">
			<g id="XMLID_2963_">
				
					<ellipse id="XMLID_2965_" transform="matrix(0.9855 -0.1697 0.1697 0.9855 -22.3785 22.7838)" class="st0" cx="122.1" cy="142.3" rx="6.8" ry="4.4"/>
			</g>
			<g id="XMLID_2959_">
				<path id="XMLID_2961_" class="st0" d="M121.6,135.9c0,0-0.1,0-0.3,0.1c-0.2,0-0.4,0.1-0.7,0.2s-0.7,0.2-1.1,0.4
					c-0.4,0.2-0.9,0.4-1.3,0.6c-0.5,0.3-0.9,0.6-1.4,1s-0.9,0.8-1.3,1.3c-0.4,0.5-0.8,1.1-1,1.6c-0.3,0.6-0.4,1.2-0.5,1.8
					c0,0.6,0.1,1.2,0.3,1.7c0.1,0.3,0.3,0.5,0.5,0.8c0.2,0.2,0.4,0.5,0.6,0.7c0.5,0.4,1,0.8,1.5,1.1c0.5,0.3,1.1,0.6,1.6,0.8
					c0.5,0.2,1,0.4,1.4,0.5s0.8,0.3,1.1,0.4s0.6,0.2,0.7,0.2c0.2,0.1,0.3,0.1,0.3,0.1s-0.1,0-0.3,0s-0.4,0-0.8,0c-0.2,0-0.4,0-0.6,0
					c-0.2,0-0.4,0-0.7,0c-0.5,0-1-0.1-1.6-0.2s-1.2-0.3-1.9-0.5s-1.3-0.6-2-1.1c-0.6-0.5-1.2-1.1-1.7-1.9c-0.4-0.8-0.6-1.7-0.6-2.7
					c0-0.9,0.3-1.8,0.7-2.5c0.2-0.4,0.4-0.7,0.7-1.1c0.2-0.3,0.5-0.6,0.8-0.9c0.5-0.6,1.1-1,1.8-1.4c0.6-0.4,1.2-0.6,1.8-0.8
					c0.6-0.2,1.1-0.3,1.6-0.3c0.5-0.1,0.9,0,1.2,0c0.2,0,0.3,0,0.5,0c0.1,0,0.2,0,0.3,0.1C121.5,135.9,121.6,135.9,121.6,135.9z"/>
			</g>
		</g>
		<g id="XMLID_2947_">
			<g id="XMLID_2953_">
				
					<ellipse id="XMLID_2955_" transform="matrix(0.7982 -0.6024 0.6024 0.7982 -72.0788 89.3283)" class="st0" cx="97.3" cy="152.2" rx="5.4" ry="3.5"/>
			</g>
			<g id="XMLID_2949_">
				<path id="XMLID_2951_" class="st0" d="M94.6,147.9c0,0-0.1,0-0.2,0.1c-0.1,0.1-0.3,0.2-0.5,0.4c-0.2,0.2-0.4,0.4-0.6,0.7
					c-0.2,0.3-0.5,0.6-0.7,0.9c-0.2,0.4-0.5,0.8-0.6,1.2c-0.2,0.4-0.3,0.9-0.4,1.4c-0.1,0.5-0.1,1-0.1,1.5s0.1,1,0.3,1.4
					s0.5,0.8,0.9,1.1c0.2,0.1,0.4,0.3,0.6,0.4c0.2,0.1,0.4,0.2,0.7,0.3c0.5,0.1,1,0.2,1.4,0.2c0.5,0,0.9,0,1.4,0
					c0.4,0,0.8-0.1,1.2-0.1c0.4-0.1,0.7-0.1,0.9-0.2c0.3,0,0.5-0.1,0.6-0.1s0.2,0,0.2,0s-0.1,0-0.2,0.1c-0.1,0.1-0.3,0.2-0.5,0.3
					c-0.1,0.1-0.2,0.1-0.4,0.2c-0.1,0.1-0.3,0.1-0.5,0.2c-0.3,0.2-0.7,0.3-1.2,0.4s-1,0.3-1.5,0.3c-0.6,0.1-1.2,0.1-1.8,0
					s-1.3-0.3-1.9-0.8c-0.6-0.4-1.1-1-1.4-1.7c-0.3-0.7-0.4-1.4-0.4-2c0-0.3,0-0.7,0.1-1s0.1-0.6,0.2-0.9c0.2-0.6,0.4-1.1,0.7-1.6
					s0.6-0.9,1-1.2c0.3-0.3,0.7-0.6,1-0.8c0.3-0.2,0.6-0.4,0.9-0.5c0.1-0.1,0.2-0.1,0.3-0.1s0.2-0.1,0.3-0.1
					C94.5,147.9,94.6,147.9,94.6,147.9z"/>
			</g>
		</g>
		<g id="XMLID_2937_">
			<g id="XMLID_2943_">
				
					<ellipse id="XMLID_2945_" transform="matrix(0.3786 -0.9256 0.9256 0.3786 -1.019 59.3886)" class="st0" cx="43.7" cy="30.5" rx="3.2" ry="1.9"/>
			</g>
			<g id="XMLID_2939_">
				<path id="XMLID_2941_" class="st0" d="M41.1,30.4c0,0,0,0,0,0.1s0,0.2-0.1,0.3c0,0.1-0.1,0.3-0.1,0.5s0,0.4,0,0.6
					c0,0.2,0,0.4,0.1,0.7c0.1,0.2,0.1,0.5,0.2,0.7s0.2,0.5,0.4,0.7c0.2,0.2,0.4,0.4,0.6,0.5s0.4,0.2,0.7,0.2c0.1,0,0.2,0,0.4,0
					c0.1,0,0.2-0.1,0.4-0.1c0.2-0.1,0.4-0.2,0.6-0.3s0.4-0.3,0.5-0.4c0.2-0.1,0.3-0.3,0.4-0.4c0.1-0.1,0.2-0.2,0.3-0.3
					c0.1-0.1,0.2-0.2,0.2-0.2c0.1-0.1,0.1-0.1,0.1-0.1s0,0,0,0.1s-0.1,0.2-0.1,0.3s-0.1,0.1-0.1,0.2c0,0.1-0.1,0.2-0.1,0.2
					c-0.1,0.2-0.2,0.3-0.3,0.5c-0.1,0.2-0.3,0.4-0.5,0.6c-0.2,0.2-0.4,0.4-0.7,0.5c-0.3,0.1-0.6,0.2-1,0.3c-0.4,0-0.7-0.1-1-0.3
					s-0.6-0.4-0.8-0.7c-0.1-0.1-0.2-0.3-0.3-0.4c-0.1-0.1-0.1-0.3-0.2-0.4c-0.1-0.3-0.2-0.6-0.2-0.9c0-0.3,0-0.5,0-0.8
					c0-0.2,0.1-0.5,0.2-0.6c0.1-0.2,0.1-0.3,0.2-0.5c0-0.1,0.1-0.1,0.1-0.2C40.9,30.6,41,30.5,41.1,30.4
					C41,30.5,41.1,30.4,41.1,30.4z"/>
			</g>
		</g>
		<g id="XMLID_2927_">
			<g id="XMLID_2933_">
				
					<ellipse id="XMLID_2935_" transform="matrix(0.9579 -0.2871 0.2871 0.9579 -10.1687 14.0347)" class="st0" cx="42.8" cy="41.7" rx="2.2" ry="3.5"/>
			</g>
			<g id="XMLID_2929_">
				<path id="XMLID_2931_" class="st0" d="M40.3,43.5c0,0,0,0,0.1,0.1c0,0.1,0.1,0.2,0.2,0.3s0.2,0.3,0.3,0.5
					c0.1,0.2,0.3,0.4,0.5,0.6c0.2,0.2,0.4,0.4,0.7,0.6c0.2,0.2,0.5,0.3,0.8,0.5c0.3,0.1,0.6,0.2,0.9,0.3c0.3,0,0.6,0,0.9,0
					c0.3-0.1,0.6-0.2,0.8-0.4c0.1-0.1,0.2-0.2,0.3-0.3c0.1-0.1,0.2-0.3,0.2-0.4c0.1-0.3,0.2-0.6,0.3-0.9c0.1-0.3,0.1-0.6,0.2-0.9
					c0-0.3,0.1-0.5,0.1-0.8c0-0.2,0-0.4,0-0.6c0-0.2,0-0.3,0-0.4c0-0.1,0-0.1,0-0.1s0,0,0,0.1s0.1,0.2,0.1,0.4
					c0,0.1,0.1,0.2,0.1,0.3s0.1,0.2,0.1,0.3c0.1,0.2,0.1,0.5,0.1,0.8s0,0.6,0,1s-0.1,0.7-0.3,1.1c-0.1,0.4-0.4,0.8-0.7,1.1
					c-0.3,0.3-0.8,0.5-1.2,0.6c-0.4,0.1-0.9,0.1-1.3,0c-0.2,0-0.4-0.1-0.6-0.2c-0.2-0.1-0.4-0.2-0.5-0.3c-0.3-0.2-0.6-0.4-0.9-0.7
					c-0.3-0.2-0.5-0.5-0.6-0.8c-0.2-0.3-0.3-0.5-0.4-0.7s-0.1-0.4-0.2-0.6c0-0.1,0-0.2,0-0.2c0-0.1,0-0.1,0-0.2
					C40.3,43.5,40.3,43.5,40.3,43.5z"/>
			</g>
		</g>
		<g id="XMLID_2917_">
			<g id="XMLID_2923_">
				
					<ellipse id="XMLID_2925_" transform="matrix(0.7892 -0.6141 0.6141 0.7892 -21.3816 42.2995)" class="st0" cx="50.9" cy="52.3" rx="2.5" ry="3.9"/>
			</g>
			<g id="XMLID_2919_">
				<path id="XMLID_2921_" class="st0" d="M48.8,54.9c0,0,0,0,0.1,0.1s0.2,0.2,0.3,0.3c0.1,0.1,0.3,0.3,0.5,0.4
					c0.2,0.1,0.4,0.3,0.7,0.4c0.3,0.1,0.6,0.3,0.9,0.4c0.3,0.1,0.7,0.2,1,0.2c0.4,0,0.7,0,1.1,0c0.4-0.1,0.7-0.2,1-0.3
					c0.3-0.2,0.5-0.4,0.7-0.7c0.1-0.1,0.2-0.3,0.2-0.5c0.1-0.2,0.1-0.3,0.1-0.5c0.1-0.3,0.1-0.7,0-1c0-0.3-0.1-0.7-0.1-1
					c-0.1-0.3-0.1-0.6-0.2-0.8c-0.1-0.3-0.1-0.5-0.2-0.6c-0.1-0.2-0.1-0.3-0.1-0.4c0-0.1,0-0.2,0-0.2s0,0,0.1,0.1s0.2,0.2,0.3,0.4
					c0.1,0.1,0.1,0.2,0.2,0.3s0.1,0.2,0.2,0.3c0.1,0.2,0.3,0.5,0.4,0.8s0.2,0.7,0.3,1c0.1,0.4,0.1,0.8,0.1,1.3s-0.1,0.9-0.4,1.4
					c-0.2,0.4-0.6,0.8-1.1,1.1c-0.4,0.3-0.9,0.4-1.4,0.5c-0.2,0-0.5,0-0.7,0s-0.5,0-0.7-0.1c-0.4-0.1-0.8-0.2-1.2-0.4
					c-0.4-0.2-0.7-0.4-0.9-0.6c-0.3-0.2-0.5-0.4-0.7-0.7c-0.2-0.2-0.3-0.4-0.4-0.6c0-0.1-0.1-0.2-0.1-0.2c0-0.1-0.1-0.1-0.1-0.2
					C48.8,55,48.8,54.9,48.8,54.9z"/>
			</g>
		</g>
		<g id="XMLID_2907_">
			<g id="XMLID_2913_">
				
					<ellipse id="XMLID_2915_" transform="matrix(0.2316 -0.9728 0.9728 0.2316 -23.0618 256.785)" class="st0" cx="151" cy="143" rx="5.7" ry="9"/>
			</g>
			<g id="XMLID_2909_">
				<path id="XMLID_2911_" class="st0" d="M153.6,135c0,0-0.1,0-0.4-0.1c-0.2-0.1-0.6-0.1-1-0.2s-0.9-0.1-1.5-0.2
					c-0.6,0-1.2,0-1.9,0.1s-1.5,0.2-2.2,0.4c-0.8,0.2-1.5,0.5-2.3,0.9s-1.5,0.9-2.1,1.5s-1.2,1.3-1.5,2c-0.4,0.7-0.5,1.5-0.5,2.3
					c0,0.4,0.1,0.8,0.2,1.2c0.1,0.4,0.2,0.8,0.4,1.2c0.3,0.7,0.8,1.5,1.3,2.1s1,1.2,1.5,1.7c0.3,0.3,0.5,0.5,0.8,0.7
					c0.1,0.1,0.2,0.2,0.4,0.3c0.1,0.1,0.2,0.2,0.3,0.3c0.2,0.2,0.4,0.4,0.6,0.5c0.2,0.2,0.4,0.3,0.6,0.5c0.3,0.3,0.6,0.5,0.8,0.6
					s0.3,0.2,0.3,0.2s-0.1,0-0.3-0.1s-0.5-0.2-0.9-0.4c-0.2-0.1-0.4-0.2-0.7-0.3c-0.2-0.1-0.5-0.2-0.8-0.4c-0.5-0.3-1.1-0.6-1.8-1.1
					c-0.6-0.4-1.3-1-1.9-1.6c-0.6-0.6-1.3-1.4-1.8-2.3s-0.9-2-1-3.1s0.2-2.3,0.7-3.4c0.5-1,1.3-1.9,2.1-2.6c0.4-0.4,0.9-0.7,1.3-0.9
					c0.5-0.3,0.9-0.5,1.4-0.7c0.9-0.4,1.9-0.6,2.8-0.8c0.9-0.1,1.8-0.1,2.5-0.1c0.8,0.1,1.5,0.2,2.1,0.4c0.6,0.2,1.1,0.4,1.5,0.6
					c0.2,0.1,0.4,0.2,0.5,0.3c0.2,0.1,0.3,0.2,0.4,0.2C153.5,134.9,153.6,135,153.6,135z"/>
			</g>
		</g>
	</g>
	<text transform="matrix(1 0 0 1 217.7324 186.9416)" class="st0 st1 st2 st3">д</text>
	<text transform="matrix(1 0 0 1 249.4324 186.9416)" class="st0 st1 st2 st4">р</text>
	<text transform="matrix(1 0 0 1 282.7324 186.9416)" class="st0 st1 st2 st4">у</text>
	<text transform="matrix(1 0 0 1 311.6324 186.9416)" class="st0 st1 st2 st3">карня</text>
	<g id="XMLID_3011_">
		<path id="XMLID_3013_" class="st0" d="M247.9,89.5c13.2,0,30.3,8.5,30.7,29c0.3,21.3-16.4,30.7-30.8,30.7c-14.3,0-31-9.3-31-29.3
			C216.7,100.9,232.5,89.5,247.9,89.5L247.9,89.5z M246.7,93.8c-10.9,0-16.9,10.7-16.9,24.6c0,13.7,7,26.6,19,26.6
			c12.9,0,16.8-13.7,16.8-25.3C265.5,108,259,93.8,246.7,93.8L246.7,93.8z"/>
		<path id="XMLID_3019_" class="st0" d="M321.8,89.5c6.2,0,10.2,1.4,12.7,2.7c2.8-1,6.3-1.8,8.4-2l0.5,0.5
			c-0.2,2.6-2.7,13.4-3.6,15.5l-2.6,1.2c-1.2-2.7-2.7-7.5-3.7-10.9c-1.6-1-4.8-2-8.8-2c-14.5,0-23.1,11.2-23.1,24.7
			c0,13.7,8.8,24.5,24.1,24.5c1.6,0,2.5-0.2,3.6-0.4c4.8-4.7,9.3-8.7,12.2-11l2.3,2c-1.2,3.7-5.8,10.9-7.2,12.4
			c-2.4,1-9.9,2.5-14.4,2.5c-16.6,0-33.2-8.8-33.2-29.5c0-21,18.5-30.2,32.6-30.2L321.8,89.5L321.8,89.5z"/>
		<path id="XMLID_3023_" class="st0" d="M395.9,91c2.6-0.4,6.9-1.1,8.8-1.3l0.4,0.5c-0.3,2.7-2.1,12.7-2.8,15.5l-1.8,0.6
			c-0.8-1.7-3.8-8.3-4.7-11.1l-12.3,0.5V116c0,21.3,0.3,23.3,0.5,25.5l10.3,2.7l-1.1,3.3c-5,0-10.1-0.1-15.1-0.1
			c-5.2,0-10.5,0.1-15.8,0.1l0.9-3.4l8.7-2.7c0.3-2.7,0.3-5.7,0.3-22.7v-23l-11.6-0.5c-1.7,2.9-4.6,7.6-6.6,10.1l-2,0.5
			c-0.2-2.7-0.1-13.1,0.3-15.8l0.6-0.4c1.5,0,6.3,0.9,8.1,1.3h34.9V91z"/>
		<path id="XMLID_3027_" class="st0" d="M441.8,89.5c13.2,0,30.3,8.5,30.7,29c0.3,21.3-16.4,30.7-30.8,30.7c-14.3,0-31-9.3-31-29.3
			C410.6,100.9,426.4,89.5,441.8,89.5L441.8,89.5z M440.6,93.8c-10.9,0-16.9,10.7-16.9,24.6c0,13.7,7,26.6,19,26.6
			c12.9,0,16.8-13.7,16.8-25.3C459.4,108,452.9,93.8,440.6,93.8L440.6,93.8z"/>
	</g>
</g>
</svg>
